<?xml version="1.0" standalone="no"?>
<!DOCTYPE svg PUBLIC "-//W3C//DTD SVG 20010904//EN"
 "http://www.w3.org/TR/2001/REC-SVG-20010904/DTD/svg10.dtd">
<svg version="1.0" xmlns="http://www.w3.org/2000/svg"
 width="512.000000pt" height="512.000000pt" viewBox="0 0 512.000000 512.000000"
 preserveAspectRatio="xMidYMid meet">

<g transform="translate(0.000000,512.000000) scale(0.100000,-0.100000)"
fill="#ff6467" stroke="none">
<path d="M2378 5110 c-835 -60 -1584 -525 -2018 -1250 -328 -548 -435 -1227
-294 -1860 105 -468 344 -902 689 -1245 404 -403 931 -660 1495 -730 159 -19
448 -19 614 0 467 55 936 254 1304 552 511 416 851 1031 927 1679 19 166 19
455 0 614 -121 983 -803 1811 -1743 2120 -301 98 -658 142 -974 120z m1099
-1293 l383 -382 0 -964 c0 -710 -3 -974 -12 -1003 -15 -50 -79 -123 -132 -150
-30 -16 -65 -23 -133 -26 l-93 -4 0 -77 c0 -101 -21 -160 -76 -215 -80 -80
-23 -76 -1038 -76 -590 0 -914 4 -938 10 -57 16 -119 69 -150 129 l-28 53 0
1263 0 1263 28 53 c31 60 93 113 150 129 20 5 72 10 115 10 l77 0 0 89 c0 77
4 95 28 141 30 59 81 105 138 125 32 11 159 14 669 15 l630 0 382 -383z"/>
<path d="M1817 4014 c-15 -14 -29 -40 -32 -58 -3 -17 -4 -575 -3 -1239 l3
-1209 33 -29 32 -29 896 0 896 0 29 29 29 29 0 906 0 906 -334 0 c-314 0 -335
1 -357 19 l-24 19 -3 341 -3 341 -568 0 -568 0 -26 -26z m728 -189 c33 -32 33
-78 0 -111 l-25 -25 -231 3 c-229 3 -231 3 -250 27 -26 32 -24 77 6 106 l24
25 226 0 226 0 24 -25z m285 -397 c11 -12 20 -35 20 -53 0 -18 -9 -41 -20 -53
-21 -22 -23 -22 -395 -22 l-374 0 -20 26 c-12 15 -21 37 -21 49 0 12 9 34 21
49 l20 26 374 0 c372 0 374 0 395 -22z m593 -377 c35 -14 53 -63 37 -101 -7
-17 -21 -35 -31 -40 -11 -6 -278 -10 -689 -10 l-671 0 -24 25 c-39 38 -29 106
18 125 29 12 1329 13 1360 1z m20 -409 c29 -31 31 -74 7 -105 l-21 -27 -684 0
-684 0 -20 26 c-12 15 -21 37 -21 49 0 12 9 34 21 49 l20 26 683 0 c647 0 684
-1 699 -18z m-19 -383 c31 -14 49 -57 40 -93 -14 -58 12 -56 -722 -56 l-673 0
-24 25 c-38 37 -28 107 17 125 35 14 1331 13 1362 -1z m15 -406 c34 -29 37
-74 8 -109 l-25 -29 -654 -3 c-432 -2 -665 1 -689 7 -57 17 -76 77 -38 125
l20 26 679 0 c631 0 679 -1 699 -17z"/>
<path d="M3140 3705 l0 -225 227 0 228 0 -225 225 c-124 124 -226 225 -227
225 -2 0 -3 -101 -3 -225z"/>
<path d="M1451 3649 c-12 -11 -26 -32 -32 -46 -12 -33 -12 -2423 0 -2456 6
-14 20 -35 32 -46 23 -21 23 -21 925 -21 l902 0 26 31 c23 27 26 40 26 105 l0
74 -757 2 -758 3 -53 29 c-28 16 -64 44 -78 63 -57 75 -54 10 -54 1193 l0
1090 -78 0 c-66 0 -82 -3 -101 -21z"/>
</g>
</svg>
